<svg width="572" height="510" viewBox="0 0 572 510" fill="none" xmlns="http://www.w3.org/2000/svg">
<mask id="mask0" mask-type="alpha" maskUnits="userSpaceOnUse" x="129" y="0" width="443" height="510">
<rect x="129" width="443" height="510" rx="24" fill="#C4C4C4"/>
</mask>
<g mask="url(#mask0)">
<path opacity="0.2" d="M20.7552 643.353L-428.256 377.73C-442.551 369.683 -454.804 356.5 -440.876 347.852L9.73419 87.8903C16.4882 83.6963 26.7522 80.9443 33.6372 84.9543L504.902 358.781C519.198 367.089 521.763 390.231 507.521 398.618L79.9252 642.933C70.9514 648.145 60.7731 650.925 50.3959 650.999C40.0188 651.073 29.802 648.437 20.7552 643.353Z" fill="#6862E6"/>
<path opacity="0.099" d="M20.7552 267.353L-428.256 1.73035C-442.551 -6.31665 -454.804 -19.4997 -440.876 -28.1477L9.73419 -288.11C16.4882 -292.304 26.7522 -295.056 33.6372 -291.046L504.902 -17.2187C519.198 -8.91066 521.763 14.2313 507.521 22.6183L79.9252 266.933C70.9514 272.145 60.7731 274.925 50.3959 274.999C40.0188 275.073 29.802 272.437 20.7552 267.353V267.353Z" stroke="#1E1F36"/>
<path opacity="0.099" d="M20.7552 342.353L-428.256 76.7303C-442.551 68.6833 -454.804 55.5003 -440.876 46.8523L9.73419 -213.11C16.4882 -217.304 26.7522 -220.056 33.6372 -216.046L504.902 57.7813C519.198 66.0893 521.763 89.2313 507.521 97.6183L79.9252 341.933C70.9514 347.145 60.7731 349.925 50.3959 349.999C40.0188 350.073 29.802 347.437 20.7552 342.353V342.353Z" stroke="#1E1F36"/>
<path d="M273.877 425.392L54.1717 295.4C47.1767 291.462 41.1817 285.01 47.9967 280.778L268.484 153.556C271.789 151.504 276.811 150.157 280.18 152.119L510.775 286.126C517.769 290.192 519.025 301.518 512.055 305.622L302.831 425.187C298.44 427.737 293.459 429.098 288.381 429.134C283.304 429.17 278.304 427.88 273.878 425.392H273.877Z" fill="#5B36A0"/>
<path d="M273.877 419.392L54.1717 289.4C47.1767 285.462 41.1817 279.01 47.9967 274.778L268.484 147.556C271.789 145.504 276.811 144.157 280.18 146.119L510.775 280.126C517.769 284.192 519.025 295.518 512.055 299.622L302.831 419.187C298.44 421.737 293.459 423.098 288.381 423.134C283.304 423.17 278.304 421.88 273.878 419.392H273.877Z" fill="#6862E6"/>
<path style="mix-blend-mode:multiply" opacity="0.25" d="M291.992 247.882L248.639 272.649C248.639 272.649 315.422 313.449 329.078 319.195L354.046 283.282" fill="url(#paint0_linear)"/>
<path style="mix-blend-mode:multiply" opacity="0.25" d="M277.016 366.702L233.651 341.987L190.287 366.754C190.287 366.754 212.872 380.554 234.458 393.227C248.166 383.517 261.886 373.706 277.016 366.702Z" fill="url(#paint1_linear)"/>
<path style="mix-blend-mode:multiply" opacity="0.46" d="M183.587 214.072L156.082 229.784C156.082 229.784 158.413 244.188 172.07 249.934L208.08 226.847" fill="url(#paint2_linear)"/>
<path d="M197.051 229.784C206.213 229.784 213.641 224.547 213.641 218.087C213.641 211.627 206.213 206.39 197.051 206.39C187.888 206.39 180.461 211.627 180.461 218.087C180.461 224.547 187.888 229.784 197.051 229.784Z" fill="#68E1FD"/>
<path d="M197.038 216.278C203.9 216.278 209.464 213.998 209.464 211.186C209.464 208.373 203.9 206.094 197.038 206.094C190.175 206.094 184.612 208.373 184.612 211.186C184.612 213.998 190.175 216.278 197.038 216.278Z" fill="#974C26"/>
<path d="M196.589 202.695C196.589 200.399 196.513 198.104 196.333 195.808C196.282 195.209 196.227 194.615 196.167 194.025L196.039 192.858C196.039 192.511 195.859 191.575 195.859 191.665C195.782 191.195 195.701 190.729 195.616 190.267C194.261 182.474 191.237 175.066 186.751 168.552C185.063 172.574 184.221 176.9 184.278 181.262C184.278 182.546 184.381 183.828 184.483 185.034V185.791C184.586 186.406 184.701 187.073 184.829 187.637C185.317 189.976 185.972 192.278 186.789 194.525C187.523 196.593 188.418 198.6 189.467 200.528C190.597 202.697 191.824 204.816 193.143 206.877C194.094 208.381 195.09 209.856 196.128 211.302C196.436 208.442 196.577 205.568 196.589 202.695ZM190.069 176.876C190.134 176.58 190.134 176.274 190.069 175.979C190.385 176.303 190.697 176.637 191.004 176.979C190.696 176.891 190.375 176.856 190.056 176.876H190.069Z" fill="#999A1C"/>
<path d="M200.855 204.465C202.125 202.549 203.292 200.566 204.353 198.527C204.635 197.997 204.908 197.467 205.173 196.937L205.698 195.872L206.198 194.769L206.748 193.486C209.819 186.188 211.274 178.312 211.014 170.399C207.412 172.869 204.359 176.057 202.047 179.762C201.383 180.83 200.763 181.926 200.189 183.046L199.933 183.52L199.869 183.726C199.626 184.303 199.382 184.88 199.152 185.47C198.301 187.705 197.612 189.998 197.089 192.332C196.59 194.47 196.261 196.645 196.103 198.835C195.876 201.269 195.765 203.713 195.77 206.158C195.77 208.069 195.77 209.814 195.885 211.494C197.589 209.224 199.305 206.889 200.855 204.465ZM209.311 179.211C209.511 178.985 209.66 178.718 209.746 178.428C209.84 178.873 209.921 179.301 209.99 179.711C209.79 179.511 209.56 179.343 209.31 179.211H209.311Z" fill="#999A1C"/>
<path d="M200.766 210.186C202.07 209.536 203.351 208.843 204.609 208.108L205.569 207.518L206.198 207.12L206.813 206.684L207.53 206.158C211.535 203.213 214.857 199.437 217.266 195.089C214.531 195.265 211.862 196.003 209.426 197.257C208.721 197.617 208.042 198.014 207.363 198.424L207.069 198.604L206.966 198.694L206.018 199.399C204.837 200.331 203.724 201.347 202.688 202.439C201.73 203.433 200.851 204.5 200.061 205.632C199.171 206.89 198.317 208.174 197.499 209.48C196.918 210.438 196.367 211.413 195.846 212.405C197.499 211.712 199.152 210.994 200.766 210.185V210.186ZM213.474 199.284C213.655 199.227 213.821 199.13 213.961 199.001C213.867 199.275 213.765 199.544 213.653 199.809C213.619 199.63 213.559 199.457 213.474 199.296V199.284ZM196.589 202.695C196.589 200.399 196.513 198.104 196.333 195.808C196.282 195.209 196.227 194.615 196.167 194.025L196.039 192.858C196.039 192.511 195.859 191.575 195.859 191.665C195.782 191.195 195.701 190.729 195.616 190.267C194.261 182.474 191.237 175.066 186.751 168.552C185.063 172.574 184.221 176.9 184.278 181.262C184.278 182.546 184.381 183.828 184.483 185.034V185.791C184.586 186.406 184.701 187.073 184.829 187.637C185.317 189.976 185.972 192.278 186.789 194.525C187.523 196.593 188.418 198.6 189.467 200.528C190.597 202.697 191.824 204.816 193.143 206.877C194.094 208.381 195.09 209.856 196.128 211.302C196.436 208.442 196.577 205.568 196.589 202.695ZM190.069 176.876C190.134 176.58 190.134 176.274 190.069 175.979C190.385 176.303 190.697 176.637 191.004 176.979C190.696 176.891 190.375 176.856 190.056 176.876H190.069Z" fill="#999A1C"/>
<path d="M200.855 204.465C202.125 202.549 203.292 200.566 204.353 198.527C204.635 197.997 204.908 197.467 205.173 196.937L205.698 195.872L206.198 194.769L206.748 193.486C209.819 186.188 211.274 178.312 211.014 170.399C207.412 172.869 204.359 176.057 202.047 179.762C201.383 180.83 200.763 181.926 200.189 183.046L199.933 183.52L199.869 183.726C199.626 184.303 199.382 184.88 199.152 185.47C198.301 187.705 197.612 189.998 197.089 192.332C196.59 194.47 196.261 196.645 196.103 198.835C195.876 201.269 195.765 203.713 195.77 206.158C195.77 208.069 195.77 209.814 195.885 211.494C197.589 209.224 199.305 206.889 200.855 204.465ZM209.311 179.211C209.511 178.985 209.66 178.718 209.746 178.428C209.84 178.873 209.921 179.301 209.99 179.711C209.79 179.511 209.56 179.343 209.31 179.211H209.311Z" fill="#999A1C"/>
<path d="M200.766 210.186C202.07 209.536 203.351 208.843 204.609 208.108L205.569 207.518L206.198 207.12L206.813 206.684L207.53 206.158C211.535 203.213 214.857 199.437 217.266 195.089C214.531 195.265 211.862 196.003 209.426 197.257C208.721 197.617 208.042 198.014 207.363 198.424L207.069 198.604L206.966 198.694L206.018 199.399C204.837 200.331 203.724 201.347 202.688 202.439C201.73 203.433 200.851 204.5 200.061 205.632C199.171 206.89 198.317 208.174 197.499 209.48C196.918 210.438 196.367 211.413 195.846 212.405C197.499 211.712 199.152 210.994 200.766 210.185V210.186ZM213.474 199.284C213.655 199.227 213.821 199.13 213.961 199.001C213.867 199.275 213.765 199.544 213.653 199.809C213.619 199.63 213.559 199.457 213.474 199.296V199.284Z" fill="#999A1C"/>
<path d="M309.209 238.211L285.215 249.754C284.31 250.189 283.542 250.863 282.991 251.702C282.44 252.542 282.129 253.515 282.089 254.518C282.05 255.521 282.284 256.516 282.767 257.396C283.25 258.276 283.963 259.008 284.831 259.514L341.698 292.734C342.927 293.453 344.386 293.669 345.771 293.337C347.156 293.005 348.358 292.15 349.128 290.952L362.951 269.429" fill="#A1482D"/>
<path d="M439.713 182.533L248.383 72.1507C247.07 71.3951 245.582 70.9983 244.068 71C242.554 71.0018 241.067 71.4021 239.757 72.1607C238.445 72.9201 237.357 74.0109 236.6 75.3238C235.843 76.6366 235.445 78.1253 235.445 79.6407V194.474C235.444 195.734 235.776 196.972 236.405 198.064C237.035 199.156 237.941 200.063 239.032 200.694L443.005 318.579C443.708 318.987 444.507 319.202 445.32 319.203C446.134 319.203 446.933 318.989 447.637 318.582C448.341 318.174 448.926 317.588 449.332 316.883C449.737 316.177 449.95 315.378 449.949 314.564V200.207C449.946 196.621 448.999 193.099 447.202 189.996C445.405 186.893 442.822 184.319 439.713 182.533Z" fill="#F47B56"/>
<path d="M248.396 80.8347L433.948 187.715C435.929 188.858 437.575 190.503 438.72 192.484C439.864 194.465 440.467 196.713 440.468 199.001V285.077C440.467 285.9 440.249 286.709 439.838 287.422C439.427 288.135 438.836 288.728 438.124 289.142C437.412 289.554 436.604 289.773 435.782 289.775C434.959 289.778 434.15 289.564 433.436 289.156L244.207 180.493C243.498 180.086 242.91 179.499 242.5 178.792C242.091 178.085 241.876 177.283 241.876 176.466V84.6177C241.876 83.0627 242.703 81.6257 244.047 80.8457C244.707 80.4623 245.457 80.2595 246.22 80.2575C246.984 80.2556 247.734 80.4546 248.397 80.8347H248.396Z" fill="white"/>
<path d="M326.47 243.187C328.659 242.766 330.042 240.394 329.56 237.89C329.078 235.387 326.912 233.698 324.724 234.12C322.535 234.541 321.151 236.913 321.633 239.417C322.116 241.921 324.281 243.609 326.47 243.187Z" fill="#AB643C"/>
<path opacity="0.32" d="M298.269 197.616L384.499 249.485L427.094 224.692L350.985 180.339" fill="url(#paint3_linear)"/>
<path d="M404.829 187.291L311.605 130.381C311.106 130.092 310.538 129.942 309.962 129.947C309.385 129.952 308.821 130.111 308.327 130.409C307.832 130.706 307.426 131.13 307.151 131.637C306.876 132.144 306.741 132.716 306.762 133.293V165.719C306.758 166.305 306.905 166.882 307.191 167.395C307.476 167.907 307.888 168.337 308.389 168.643L401.601 224.347C402.598 224.914 403.821 224.907 404.811 224.327C405.297 224.042 405.701 223.634 405.981 223.145C406.26 222.655 406.407 222.101 406.405 221.537L406.892 191.307C406.928 190.516 406.756 189.729 406.394 189.025C406.032 188.32 405.493 187.723 404.829 187.292V187.291Z" fill="#E2AC00"/>
<path d="M382.526 203.978C385.869 208.659 391.749 209.968 395.644 206.915C399.538 203.862 399.987 197.591 396.644 192.922C393.299 188.253 387.419 186.932 383.524 189.985C379.63 193.037 379.182 199.296 382.526 203.978Z" fill="white"/>
<path d="M373.379 181.507L335.356 158.587C335.029 158.434 334.657 158.408 334.313 158.515C333.968 158.622 333.676 158.854 333.494 159.165C333.311 159.476 333.251 159.844 333.325 160.197C333.4 160.551 333.603 160.863 333.896 161.075L371.918 183.995C372.244 184.148 372.616 184.173 372.961 184.066C373.305 183.959 373.597 183.728 373.78 183.417C373.963 183.105 374.023 182.737 373.949 182.384C373.874 182.031 373.671 181.718 373.379 181.507ZM371.816 190.819L319.406 159.228C319.085 159.117 318.735 159.123 318.418 159.244C318.101 159.365 317.836 159.594 317.67 159.89C317.504 160.186 317.447 160.53 317.509 160.864C317.571 161.198 317.748 161.499 318.01 161.716L370.355 193.319C370.681 193.472 371.053 193.497 371.398 193.39C371.742 193.283 372.034 193.052 372.217 192.741C372.4 192.43 372.46 192.061 372.386 191.708C372.311 191.355 372.108 191.042 371.816 190.831V190.818V190.819Z" fill="#F2F2F2"/>
<path d="M386.228 193.576L293.055 136.679C292.556 136.39 291.988 136.24 291.412 136.245C290.835 136.25 290.271 136.409 289.777 136.707C289.282 137.004 288.876 137.428 288.601 137.935C288.326 138.443 288.191 139.014 288.212 139.591V172.002C288.204 172.589 288.349 173.169 288.632 173.684C288.915 174.198 289.327 174.631 289.827 174.94L383.038 230.643C384.046 231.223 385.288 231.213 386.286 230.618C386.776 230.325 387.18 229.907 387.456 229.406C387.732 228.906 387.869 228.341 387.855 227.77L388.342 197.54C388.363 196.752 388.18 195.973 387.809 195.278C387.438 194.583 386.893 193.996 386.228 193.576Z" fill="#F47B56"/>
<path d="M363.924 210.263C367.268 214.944 373.148 216.253 377.043 213.2C380.937 210.147 381.385 203.875 378.042 199.207C374.698 194.537 368.818 193.217 364.924 196.269C361.029 199.322 360.581 205.581 363.924 210.263Z" fill="white"/>
<path d="M354.777 187.791L316.729 164.871C316.402 164.718 316.03 164.692 315.686 164.799C315.341 164.906 315.049 165.138 314.867 165.449C314.684 165.76 314.624 166.128 314.698 166.481C314.773 166.835 314.976 167.147 315.269 167.359L353.291 190.279C353.617 190.432 353.989 190.457 354.334 190.35C354.678 190.243 354.97 190.012 355.153 189.701C355.336 189.389 355.396 189.021 355.322 188.668C355.247 188.315 355.044 188.002 354.752 187.791H354.777ZM353.202 197.167L300.805 165.525C300.478 165.372 300.106 165.346 299.761 165.453C299.417 165.561 299.125 165.792 298.943 166.104C298.76 166.415 298.7 166.783 298.774 167.136C298.849 167.49 299.052 167.802 299.345 168.014L351.754 199.604C352.08 199.757 352.452 199.782 352.797 199.675C353.141 199.568 353.433 199.337 353.616 199.026C353.798 198.714 353.858 198.346 353.784 197.993C353.71 197.64 353.506 197.327 353.214 197.116L353.202 197.167Z" fill="#F2F2F2"/>
<path d="M362.849 197.399L269.649 140.502C269.15 140.213 268.582 140.063 268.006 140.068C267.429 140.072 266.865 140.232 266.371 140.529C265.876 140.826 265.471 141.25 265.196 141.758C264.921 142.265 264.786 142.836 264.807 143.413V175.825C264.803 176.411 264.95 176.988 265.236 177.501C265.521 178.013 265.933 178.443 266.434 178.749L359.645 234.453C360.653 235.033 361.895 235.023 362.894 234.427C363.384 234.134 363.788 233.716 364.063 233.216C364.339 232.715 364.476 232.151 364.462 231.58L364.949 201.349C364.969 200.565 364.787 199.789 364.419 199.097C364.051 198.405 363.51 197.82 362.849 197.399Z" fill="#68E1FD"/>
<path d="M362.849 197.399L269.649 140.502C269.15 140.213 268.582 140.063 268.006 140.068C267.429 140.072 266.865 140.232 266.371 140.529C265.876 140.826 265.471 141.25 265.196 141.758C264.921 142.265 264.786 142.836 264.807 143.413V175.825C264.803 176.411 264.95 176.988 265.236 177.501C265.521 178.013 265.933 178.443 266.434 178.749L359.645 234.453C360.653 235.033 361.895 235.023 362.894 234.427C363.384 234.134 363.788 233.716 364.063 233.216C364.339 232.715 364.476 232.151 364.462 231.58L364.949 201.349C364.969 200.565 364.787 199.789 364.419 199.097C364.051 198.405 363.51 197.82 362.849 197.399Z" fill="#68E1FD"/>
<path d="M340.532 214.085C343.875 218.766 349.756 220.075 353.65 217.022C357.545 213.969 357.993 207.697 354.65 203.029C351.306 198.36 345.425 197.039 341.531 200.092C337.637 203.144 337.227 209.403 340.531 214.085H340.532Z" fill="white"/>
<path d="M331.385 191.614L293.35 168.694C293.023 168.541 292.651 168.515 292.307 168.622C291.962 168.729 291.67 168.961 291.488 169.272C291.305 169.583 291.245 169.951 291.319 170.304C291.393 170.657 291.596 170.97 291.889 171.182L329.912 194.102C330.238 194.255 330.61 194.28 330.955 194.173C331.299 194.066 331.591 193.835 331.774 193.524C331.956 193.212 332.016 192.844 331.942 192.491C331.868 192.138 331.664 191.825 331.372 191.614H331.385ZM329.809 200.939L277.4 169.347C277.073 169.194 276.701 169.168 276.356 169.275C276.012 169.383 275.72 169.614 275.538 169.926C275.355 170.237 275.295 170.605 275.369 170.958C275.444 171.312 275.647 171.624 275.94 171.836L328.349 203.426C328.675 203.579 329.047 203.604 329.392 203.497C329.736 203.39 330.028 203.159 330.211 202.848C330.393 202.536 330.453 202.168 330.379 201.815C330.305 201.462 330.101 201.149 329.809 200.938V200.939Z" fill="#F2F2F2"/>
<path d="M240.531 194.217C234.507 199.409 229.952 206.092 227.323 213.597C222.685 226.424 234.279 247.381 234.279 247.381L252.317 233.081" fill="#FF8F6F"/>
<path d="M238.583 363.791L233.69 361.085L234.97 354.082C234.97 354.082 242.26 354.774 242.9 357.365" fill="#003B94"/>
<path d="M240.377 363.689C241.479 363.009 242.632 362.406 243.772 361.803C246.602 360.251 250.69 358.648 252.432 355.736C252.789 355.147 252.958 354.463 252.917 353.776C252.876 353.088 252.626 352.43 252.202 351.888C249.639 348.784 244.028 353.889 241.158 350.452C240.595 349.772 240.326 338.985 240.326 338.985L229.411 341.935C229.411 341.935 227.566 363.611 227.771 364.945C227.976 366.279 231.73 367.511 231.73 367.511C232.848 367.273 233.914 366.838 234.881 366.228C236.021 365.394 234.983 355.223 236.444 356.647C237.904 358.071 238.544 363.637 238.544 363.637C239.151 363.729 239.766 363.747 240.377 363.688V363.689Z" fill="#F47B56"/>
<path d="M259.427 374.269L254.533 371.602L255.813 364.599C255.813 364.599 263.103 365.292 263.743 367.882" fill="#003B94"/>
<path d="M261.271 374.167C262.373 373.487 263.526 372.885 264.666 372.282C267.497 370.73 271.584 369.127 273.326 366.215C273.683 365.626 273.852 364.942 273.811 364.255C273.77 363.567 273.52 362.909 273.096 362.367C270.533 359.263 264.922 364.368 262.053 360.931C261.489 360.251 261.22 349.464 261.22 349.464L250.305 352.414C250.305 352.414 248.448 374.167 248.653 375.45C248.858 376.732 252.611 378.015 252.611 378.015C253.729 377.777 254.796 377.342 255.763 376.732C256.903 375.899 255.865 365.728 257.326 367.152C258.786 368.575 259.426 374.142 259.426 374.142C260.037 374.226 260.657 374.234 261.271 374.167Z" fill="#F47B56"/>
<path d="M223.864 303.803L220.648 346.861C220.648 346.861 225.773 353.941 242.952 350.003L243.118 320.977L223.864 303.803ZM243.708 312.333C243.336 316.039 243.708 356.929 243.708 356.929C243.708 356.929 248.46 365.83 269.15 356.929L268.855 322.183" fill="#3E2928"/>
<path d="M222.262 318.027C223.672 319.002 224.158 313.987 225.632 314.847C230.991 317.963 236.679 320.475 242.593 322.337H242.721C242.862 322.268 243.015 322.229 243.171 322.221C243.328 322.213 243.484 322.236 243.631 322.29C243.778 322.344 243.913 322.427 244.028 322.534C244.142 322.641 244.233 322.77 244.297 322.914C247.949 324.005 251.668 324.861 255.43 325.479C260.26 326.249 264.256 322.671 269.214 322.427C269.214 303.419 269.304 249.318 261.22 237.775L237.302 229.72C237.187 231.695 225.696 245.034 225.977 261.298C226.297 279.626 223.915 296.916 223.505 302.649C223.441 303.624 222.314 316.989 222.262 318.027Z" fill="#3E2928"/>
<path d="M263.423 215.919L261.22 237.723C261.22 237.723 243.375 238.442 235.688 233.132V214.636" fill="#FF8F6F"/>
<path d="M286.111 201.567L284.292 204.055C285.262 202.031 286.118 199.955 286.854 197.835C287.367 196.385 285.048 195.808 284.536 197.257L284.266 198.001C284.489 197.231 284.698 196.458 284.894 195.679C284.934 195.525 284.944 195.366 284.922 195.209C284.901 195.052 284.848 194.901 284.768 194.764C284.687 194.628 284.58 194.509 284.453 194.414C284.326 194.319 284.181 194.251 284.027 194.212C283.873 194.174 283.713 194.167 283.557 194.191C283.4 194.215 283.25 194.27 283.115 194.353C282.98 194.436 282.862 194.544 282.769 194.673C282.677 194.802 282.61 194.947 282.575 195.102C282.072 197.115 281.469 199.101 280.769 201.054C281.16 199.32 281.443 197.563 281.615 195.794C281.769 194.269 279.373 194.333 279.232 195.794C279.033 197.808 278.673 199.802 278.156 201.759C278.156 201.075 278.092 200.391 277.964 199.707C277.946 199.536 277.893 199.371 277.806 199.223C277.72 199.074 277.603 198.946 277.464 198.847C277.399 198.578 277.322 198.313 277.234 198.052C277.143 197.783 276.961 197.555 276.719 197.407C276.477 197.26 276.19 197.202 275.91 197.245C275.629 197.288 275.373 197.429 275.186 197.642C275 197.856 274.894 198.128 274.889 198.412L274.735 207.39C274.302 208.32 273.736 209.185 273.057 209.955C274.209 210.753 275.321 211.609 276.388 212.52C277.339 213.325 278.246 214.181 279.104 215.085C279.869 214.131 280.608 213.156 281.32 212.161C281.408 212.086 281.486 212 281.55 211.904C283.683 208.742 285.888 205.629 288.161 202.567C289.109 201.515 287.021 200.348 286.111 201.567Z" fill="#FFB5A9"/>
<path d="M252.099 196.039C252.099 196.039 260.529 198.309 263.949 203.734C266.091 207.489 267.979 211.385 269.599 215.394L275.824 205.709C275.824 205.709 283.383 208.031 286.38 211.751C286.38 211.751 277.413 231.374 269.598 233.055C261.784 234.735 253.482 221.537 253.482 221.537C253.482 221.537 251.766 227.052 252.099 221.165" fill="#FF8F6F"/>
<path d="M257.454 217.009C255.003 215.012 253.154 212.375 252.112 209.391C251.099 205.941 252.368 202.913 253.546 199.707C254.822 196.528 255.566 193.161 255.75 189.741C255.852 186.381 255.468 183.021 255.237 179.672C255.204 179.528 255.204 179.379 255.237 179.236C254.11 175.453 251.804 172.246 247.257 171.861C235.483 170.861 234.817 183.918 234.907 189.228C234.997 194.538 235.56 198.129 231.653 200.348C227.745 202.567 224.927 208.39 228.655 213.098C232.383 217.804 229.039 216.086 226.554 220.267C224.069 224.448 224.709 229.669 229.808 231.554C234.907 233.439 258.607 229.899 260.784 227.706C261.557 226.822 261.956 225.672 261.899 224.5C261.368 221.549 259.789 218.889 257.454 217.01V217.009Z" fill="#007F68"/>
<path d="M269.035 109.321C271.03 112.197 272.184 115.573 272.365 119.069C272.588 120.669 272.2 122.295 271.277 123.622C270.884 124.054 270.358 124.344 269.782 124.444C269.207 124.544 268.614 124.449 268.099 124.174C267.451 123.915 266.866 123.522 266.383 123.02C265.948 122.611 265.576 122.14 265.281 121.622L264.974 121.019C264.89 121.176 264.786 121.323 264.666 121.455C264.36 121.693 263.999 121.847 263.616 121.904C262.975 122.022 262.313 121.942 261.72 121.673C260.303 121.059 259.125 120.001 258.363 118.659C257.444 117.199 256.931 115.521 256.877 113.798C256.783 113.108 256.841 112.407 257.047 111.742C257.253 111.077 257.602 110.465 258.069 109.95C258.474 109.558 258.991 109.301 259.548 109.213C260.105 109.126 260.676 109.213 261.182 109.462C261.695 109.667 262.168 109.962 262.578 110.335C262.928 110.632 263.237 110.972 263.5 111.348L263.73 111.758V110.617L266.293 111.617L266.549 118.826C266.567 119.342 266.727 119.843 267.011 120.275C267.251 120.692 267.62 121.02 268.061 121.211C269.299 121.699 269.871 120.63 269.778 118.005C269.649 115.405 268.792 112.894 267.305 110.758C265.969 108.586 263.984 106.889 261.63 105.91C260.776 105.475 259.811 105.307 258.86 105.429C257.909 105.55 257.017 105.954 256.3 106.59C255.534 107.36 254.952 108.292 254.595 109.318C254.238 110.343 254.116 111.436 254.238 112.515C254.384 115.264 255.269 117.923 256.8 120.211C258.018 122.469 259.938 124.27 262.27 125.341C263.082 125.681 263.954 125.851 264.833 125.841C265.405 125.88 265.977 125.774 266.498 125.534L267.011 125.251L268.561 128.137L268.304 128.317C268.06 128.453 267.808 128.573 267.549 128.676C267.139 128.853 266.709 128.974 266.267 129.036C265.702 129.112 265.129 129.112 264.564 129.036C263.821 128.947 263.093 128.761 262.399 128.484C260.425 127.634 258.672 126.344 257.274 124.713C255.616 122.877 254.274 120.779 253.303 118.505C252.33 116.332 251.774 113.995 251.663 111.617C251.525 109.617 251.933 107.618 252.842 105.833C253.596 104.335 254.899 103.186 256.48 102.626C258.135 102.08 259.935 102.172 261.527 102.883C264.636 104.199 267.26 106.448 269.035 109.321ZM263.385 118.441C263.805 117.903 263.995 117.22 263.91 116.542C263.889 115.706 263.655 114.89 263.231 114.17C262.884 113.541 262.339 113.045 261.681 112.759C261.428 112.628 261.142 112.578 260.861 112.615C260.579 112.651 260.315 112.773 260.105 112.964C259.884 113.216 259.719 113.512 259.622 113.833C259.525 114.154 259.497 114.491 259.542 114.824C259.571 115.67 259.822 116.493 260.272 117.209C260.642 117.861 261.212 118.374 261.899 118.672C262.139 118.795 262.412 118.839 262.679 118.797C262.946 118.756 263.193 118.631 263.385 118.441ZM420.292 248.202C422.29 251.076 423.444 254.453 423.622 257.95C423.845 259.55 423.457 261.176 422.534 262.503C422.14 262.933 421.614 263.221 421.039 263.321C420.464 263.421 419.873 263.327 419.357 263.055C418.711 262.793 418.126 262.4 417.64 261.901C417.207 261.49 416.836 261.019 416.538 260.502L416.231 259.9C416.144 260.056 416.041 260.202 415.923 260.336C415.619 260.576 415.257 260.731 414.873 260.785C414.238 260.912 413.579 260.836 412.99 260.567C411.571 259.95 410.393 258.887 409.633 257.54C408.705 256.079 408.187 254.395 408.134 252.666C408.036 251.976 408.093 251.273 408.299 250.608C408.505 249.943 408.856 249.332 409.326 248.818C409.729 248.427 410.244 248.171 410.799 248.083C411.353 247.996 411.922 248.083 412.426 248.331C412.94 248.535 413.413 248.83 413.822 249.203C414.172 249.505 414.482 249.85 414.745 250.229L414.988 250.639V249.498L417.55 250.485L417.807 257.694C417.829 258.209 417.988 258.709 418.267 259.143C418.509 259.56 418.877 259.888 419.318 260.079C420.599 260.567 421.125 259.502 421.048 256.873C420.918 254.269 420.061 251.754 418.575 249.613C417.239 247.449 415.259 245.758 412.913 244.778C412.059 244.343 411.095 244.174 410.145 244.293C409.195 244.412 408.302 244.813 407.583 245.445C406.821 246.224 406.245 247.165 405.897 248.197C405.549 249.23 405.438 250.327 405.573 251.409C405.716 254.158 406.601 256.817 408.134 259.104C409.399 261.308 411.34 263.049 413.669 264.068C414.48 264.406 415.351 264.58 416.231 264.581C416.802 264.614 417.374 264.508 417.896 264.273L418.409 263.991L419.959 266.877L419.703 267.057C419.459 267.193 419.207 267.313 418.947 267.416C418.535 267.586 418.105 267.706 417.666 267.775C417.096 267.85 416.518 267.85 415.949 267.775C415.21 267.681 414.486 267.492 413.797 267.211C411.824 266.364 410.071 265.079 408.672 263.452C407.014 261.612 405.672 259.51 404.702 257.232C403.728 255.059 403.172 252.722 403.062 250.344C402.922 248.348 403.33 246.353 404.24 244.572C404.996 243.073 406.298 241.921 407.878 241.353C409.538 240.812 411.34 240.904 412.938 241.61C416.011 242.994 418.58 245.297 420.292 248.202ZM414.642 257.322C414.852 257.056 415.008 256.752 415.1 256.426C415.193 256.1 415.22 255.759 415.18 255.423C415.157 254.586 414.919 253.769 414.489 253.051C414.148 252.422 413.606 251.925 412.951 251.64C412.7 251.508 412.415 251.456 412.133 251.49C411.852 251.524 411.588 251.643 411.376 251.832C411.151 252.081 410.982 252.377 410.883 252.698C410.783 253.019 410.755 253.358 410.799 253.692C410.829 254.534 411.08 255.352 411.529 256.065C411.898 256.72 412.469 257.237 413.156 257.54C413.395 257.665 413.667 257.711 413.934 257.672C414.201 257.632 414.449 257.51 414.642 257.322Z" fill="#F47B56"/>
<path style="mix-blend-mode:multiply" opacity="0.25" d="M164.998 302.893L121.633 278.189L78.2817 302.943C78.2817 302.943 102.404 318.026 123.991 330.699C137.698 321.002 149.881 309.908 164.998 302.892V302.893Z" fill="url(#paint4_linear)"/>
</g>
<g filter="url(#filter0_d)">
<path d="M50 231.755V285.625L91.968 309.66L139.355 281.635V227.765" fill="black"/>
</g>
<path d="M50 231.755V285.625L91.968 309.66L139.355 281.635V227.765" fill="#FF9271"/>
<path d="M91.969 255.791V309.661L139.356 281.635V227.765L91.969 255.791Z" fill="#DF5C34"/>
<path d="M50 231.754L98.694 204L139.356 227.767L91.969 255.792L50 231.754Z" fill="#F47B56"/>
<path d="M93.083 216.364C98.0202 216.031 102.95 217.116 107.29 219.493C109.776 220.955 111.134 222.481 111.326 224.072C111.518 225.662 110.698 227.047 108.764 228.215C107.847 228.782 106.836 229.181 105.779 229.395C104.91 229.6 104.019 229.69 103.127 229.664L102.153 229.587C102.244 229.804 102.304 230.033 102.333 230.267C102.302 230.821 102.125 231.356 101.82 231.819C101.313 232.679 100.589 233.391 99.72 233.884C97.6953 235.087 95.3747 235.7 93.02 235.654C90.5835 235.719 88.1762 235.112 86.063 233.897C84.064 232.717 83.04 231.331 82.963 229.741C82.9705 228.899 83.2148 228.076 83.6678 227.366C84.1208 226.656 84.7644 226.088 85.525 225.726C86.2548 225.271 87.0496 224.929 87.882 224.713C88.5458 224.521 89.2292 224.405 89.919 224.367H90.624L89.342 223.597L92.942 221.353L101.282 226.265C101.92 226.608 102.633 226.788 103.357 226.788C104.081 226.788 104.794 226.608 105.432 226.265C107.201 225.162 106.569 223.713 103.537 221.917C100.315 220.143 96.6516 219.328 92.981 219.57C89.0906 219.618 85.2847 220.712 81.963 222.738C78.94 224.628 77.441 226.881 77.467 229.498C77.467 232.062 79.068 234.346 82.181 236.18C85.5787 238.08 89.4375 238.999 93.327 238.835C97.1993 238.898 101.013 237.886 104.344 235.91C105.497 235.227 106.531 234.36 107.406 233.345C107.991 232.724 108.428 231.979 108.686 231.165L108.866 230.357L113.619 230.626C113.627 230.771 113.627 230.916 113.619 231.062C113.532 231.455 113.416 231.84 113.273 232.216C113.067 232.819 112.791 233.396 112.453 233.936C111.965 234.663 111.398 235.333 110.763 235.936C109.925 236.744 109.001 237.459 108.008 238.066C105.148 239.783 101.98 240.924 98.682 241.426C95.0882 242.054 91.4187 242.118 87.805 241.618C84.5201 241.231 81.3453 240.193 78.466 238.565C76.1411 237.334 74.2795 235.381 73.162 232.999C72.7053 231.96 72.4695 230.837 72.4695 229.702C72.4695 228.568 72.7053 227.445 73.162 226.406C74.269 223.981 76.1115 221.966 78.428 220.647C82.842 217.934 87.9028 216.455 93.083 216.363V216.364ZM97.746 229.626C97.576 228.735 96.976 227.986 96.145 227.625C95.1359 227.03 93.9863 226.716 92.815 226.714C91.7261 226.673 90.6487 226.949 89.714 227.509C89.3374 227.693 89.0187 227.977 88.7927 228.33C88.5668 228.683 88.4423 229.091 88.433 229.51C88.55 230.4 89.123 231.164 89.945 231.524C90.9772 232.114 92.1506 232.411 93.339 232.384C94.4817 232.413 95.6093 232.119 96.593 231.537C96.9578 231.37 97.266 231.1 97.48 230.761C97.694 230.422 97.8045 230.027 97.798 229.626" fill="#3E2928"/>
<defs>
<filter id="filter0_d" x="0" y="202.765" width="189.355" height="181.895" filterUnits="userSpaceOnUse" color-interpolation-filters="sRGB">
<feFlood flood-opacity="0" result="BackgroundImageFix"/>
<feColorMatrix in="SourceAlpha" type="matrix" values="0 0 0 0 0 0 0 0 0 0 0 0 0 0 0 0 0 0 127 0"/>
<feOffset dy="25"/>
<feGaussianBlur stdDeviation="25"/>
<feColorMatrix type="matrix" values="0 0 0 0 0.209139 0 0 0 0 0.0691446 0 0 0 0 0.478091 0 0 0 0.497159 0"/>
<feBlend mode="normal" in2="BackgroundImageFix" result="effect1_dropShadow"/>
<feBlend mode="normal" in="SourceGraphic" in2="effect1_dropShadow" result="shape"/>
</filter>
<linearGradient id="paint0_linear" x1="313.128" y1="274.139" x2="299.186" y2="293.056" gradientUnits="userSpaceOnUse">
<stop stop-color="#78B46A"/>
<stop offset="0.03" stop-color="#7F3500"/>
<stop offset="1" stop-color="white"/>
</linearGradient>
<linearGradient id="paint1_linear" x1="261.566" y1="356.6" x2="232.325" y2="388.702" gradientUnits="userSpaceOnUse">
<stop stop-color="#78B46A"/>
<stop offset="0.03" stop-color="#7F3500"/>
<stop offset="1" stop-color="white"/>
</linearGradient>
<linearGradient id="paint2_linear" x1="198.023" y1="221.913" x2="176.099" y2="245.985" gradientUnits="userSpaceOnUse">
<stop stop-color="#78B46A"/>
<stop offset="0.03" stop-color="#7F3500"/>
<stop offset="1" stop-color="white"/>
</linearGradient>
<linearGradient id="paint3_linear" x1="402.638" y1="222.234" x2="389.499" y2="212.64" gradientUnits="userSpaceOnUse">
<stop stop-color="white" stop-opacity="0"/>
<stop offset="0.99" stop-color="#DC841E"/>
</linearGradient>
<linearGradient id="paint4_linear" x1="149.547" y1="292.648" x2="119.879" y2="325.221" gradientUnits="userSpaceOnUse">
<stop stop-color="#78B46A"/>
<stop offset="0.03" stop-color="#7F3500"/>
<stop offset="1" stop-color="white"/>
</linearGradient>
</defs>
</svg>
