<svg width="242" height="212" viewBox="0 0 242 212" fill="none" xmlns="http://www.w3.org/2000/svg">
<path opacity="0.099" d="M118.454 210.048L6.66709 142.239C3.10709 140.185 0.0570879 136.819 3.52509 134.612L115.709 68.2483C117.391 67.1783 119.946 66.4753 121.66 67.4983L238.988 137.402C242.547 139.522 243.186 145.43 239.64 147.572L133.185 209.94C130.962 211.27 128.424 211.98 125.834 211.999C123.244 212.018 120.696 211.344 118.454 210.047V210.048Z" fill="#6862E6"/>
<path d="M118.453 178.119L6.66654 112.785C3.10778 110.806 0.0566853 107.563 3.52526 105.436L115.709 41.493C117.391 40.4605 119.946 39.7838 121.661 40.7712L238.988 108.124C242.547 110.167 243.185 115.859 239.64 117.921L133.185 178.016C130.95 179.298 128.416 179.982 125.833 180C123.25 180.018 120.706 179.369 118.453 178.119V178.119Z" fill="#5B36A0"/>
<path d="M118.453 175.103L6.66654 109.768C3.10778 107.788 0.0566853 104.545 3.52526 102.418L115.709 38.4757C117.391 37.4442 119.946 36.7676 121.661 37.754L238.988 105.106C242.547 107.15 243.185 112.842 239.64 114.905L133.185 174.999C130.95 176.281 128.416 176.965 125.833 176.983C123.25 177.001 120.706 176.353 118.453 175.102V175.103Z" fill="#6862E6"/>
<path style="mix-blend-mode:multiply" opacity="0.25" d="M127.671 88.9013L105.613 101.349C105.613 101.349 139.592 121.856 146.54 124.744L159.244 106.693" fill="url(#paint0_linear)"/>
<path style="mix-blend-mode:multiply" opacity="0.25" d="M120.05 148.621L97.9865 136.198L75.9226 148.646C75.9226 148.646 87.4136 155.583 98.3979 161.953C105.372 157.073 112.352 152.141 120.05 148.62V148.621Z" fill="url(#paint1_linear)"/>
<path style="mix-blend-mode:multiply" opacity="0.46" d="M72.5138 71.9083L58.5189 79.8054C58.5189 79.8054 59.7045 87.0448 66.6538 89.9328L84.9766 78.3288" fill="url(#paint2_linear)"/>
<path d="M79.3638 79.8054C84.0256 79.8054 87.8047 77.1732 87.8047 73.9262C87.8047 70.6792 84.0256 68.047 79.3638 68.047C74.702 68.047 70.9229 70.6792 70.9229 73.9262C70.9229 77.1732 74.702 79.8054 79.3638 79.8054Z" fill="#68E1FD"/>
<path d="M79.3578 73.017C82.8499 73.017 85.6808 71.8712 85.6808 70.4578C85.6808 69.0444 82.8499 67.8987 79.3578 67.8987C75.8656 67.8987 73.0347 69.0444 73.0347 70.4578C73.0347 71.8712 75.8656 73.017 79.3578 73.017Z" fill="#974C26"/>
<path d="M79.1297 66.1905C79.1297 65.0368 79.0902 63.882 78.999 62.7282C78.9726 62.4275 78.9443 62.1287 78.9139 61.832L78.849 61.2456C78.849 61.0722 78.7578 60.6011 78.7578 60.6462C78.7183 60.4096 78.6767 60.175 78.6342 59.9445C77.9446 56.027 76.406 52.3036 74.1239 49.0302C73.265 51.0514 72.8366 53.2262 72.8654 55.4186C72.8654 56.0631 72.9171 56.7077 72.9697 57.3131V57.6941C73.2266 59.1895 73.6193 60.659 74.1432 62.0846C74.5166 63.1238 74.972 64.1323 75.5051 65.1009C76.0804 66.1914 76.7045 67.256 77.3756 68.2916C77.8975 69.1036 78.393 69.8253 78.8956 70.516C79.0517 69.0785 79.1226 67.634 79.1287 66.1905H79.1297ZM75.8121 53.2132C75.8455 53.0647 75.8455 52.9107 75.8121 52.7622C75.9722 52.9255 76.1313 53.0929 76.2884 53.2654C76.1314 53.2211 75.9679 53.2035 75.805 53.2132H75.8121Z" fill="#999A1C"/>
<path d="M81.3002 67.0797C81.9518 66.1073 82.5263 65.145 83.0796 64.0955C83.2225 63.8288 83.3623 63.5622 83.4971 63.2955L83.7636 62.7603L84.0179 62.2059L84.2986 61.5614C85.8609 57.8942 86.6014 53.9357 86.4691 49.9584C84.637 51.1994 83.0836 52.8013 81.9062 54.6637C81.5683 55.201 81.2529 55.7518 80.9608 56.3147L80.8311 56.5523L80.7976 56.6555C80.674 56.9462 80.5504 57.2369 80.4328 57.5326C80.0006 58.6559 79.6501 59.8083 79.3841 60.981C79.1302 62.0559 78.9621 63.1489 78.8814 64.2498C78.7664 65.4735 78.7099 66.7018 78.7122 67.9307C78.7122 68.8911 78.7122 69.7682 78.771 70.6122C79.6374 69.4714 80.5109 68.2986 81.3002 67.0797V67.0797ZM85.6017 54.3871C85.7041 54.2738 85.7801 54.1395 85.8237 53.9931C85.8713 54.2166 85.9128 54.4322 85.9473 54.6387C85.846 54.5384 85.7294 54.4532 85.6028 54.3871H85.6017Z" fill="#999A1C"/>
<path d="M81.2546 69.9546C81.9102 69.6329 82.5618 69.285 83.2103 68.9111L83.6987 68.6144L84.0179 68.4139L84.331 68.1954L84.6958 67.9307C86.7336 66.4515 88.4236 64.5536 89.6499 62.3673C88.2586 62.4556 86.9006 62.8266 85.6605 63.457C85.3018 63.6374 84.9562 63.8379 84.6107 64.0434L84.4617 64.1336L84.4091 64.1787L83.9267 64.5336C83.3258 65.0017 82.7594 65.5129 82.2325 66.0612C81.7451 66.5604 81.2982 67.0977 80.8949 67.6661C80.4425 68.299 80.008 68.9441 79.5918 69.6008C79.2797 70.116 78.999 70.5992 78.7507 71.0703C79.5918 70.7225 80.4328 70.3606 81.2536 69.9546H81.2546ZM87.7196 64.4754C87.8119 64.4471 87.8967 64.3988 87.9678 64.3341C87.9203 64.4711 87.8683 64.6065 87.8118 64.74C87.7948 64.6501 87.764 64.5632 87.7206 64.4824V64.4754H87.7196ZM79.1297 66.1906C79.1297 65.0368 79.0902 63.882 78.999 62.7282C78.9726 62.4275 78.9443 62.1287 78.9139 61.832L78.849 61.2456C78.849 61.0722 78.7578 60.6011 78.7578 60.6462C78.7183 60.4096 78.6767 60.175 78.6342 59.9445C77.9446 56.027 76.406 52.3036 74.1239 49.0302C73.265 51.0514 72.8366 53.2262 72.8654 55.4186C72.8654 56.0631 72.9171 56.7077 72.9697 57.3131V57.6941C73.2266 59.1895 73.6193 60.659 74.1432 62.0846C74.5166 63.1238 74.972 64.1323 75.5051 65.1009C76.0804 66.1914 76.7045 67.256 77.3756 68.2916C77.8975 69.1036 78.393 69.8253 78.8956 70.516C79.0517 69.0785 79.1226 67.634 79.1287 66.1906H79.1297ZM75.8121 53.2132C75.8455 53.0647 75.8455 52.9107 75.8121 52.7622C75.9722 52.9255 76.1313 53.093 76.2884 53.2654C76.1314 53.2211 75.9679 53.2035 75.805 53.2132H75.8121Z" fill="#999A1C"/>
<path d="M81.3002 67.0797C81.9518 66.1073 82.5263 65.145 83.0796 64.0955C83.2225 63.8288 83.3623 63.5622 83.4971 63.2955L83.7636 62.7603L84.0179 62.2059L84.2986 61.5614C85.8609 57.8942 86.6014 53.9357 86.4691 49.9584C84.637 51.1994 83.0836 52.8013 81.9062 54.6637C81.5683 55.201 81.2529 55.7518 80.9608 56.3147L80.8311 56.5523L80.7976 56.6555C80.674 56.9462 80.5504 57.2369 80.4328 57.5326C80.0006 58.6559 79.6501 59.8083 79.3841 60.981C79.1302 62.0559 78.9621 63.1489 78.8814 64.2498C78.7664 65.4735 78.7099 66.7018 78.7122 67.9307C78.7122 68.8911 78.7122 69.7682 78.771 70.6122C79.6374 69.4714 80.5109 68.2986 81.3002 67.0797V67.0797ZM85.6017 54.3871C85.7041 54.2738 85.7801 54.1395 85.8237 53.9931C85.8713 54.2166 85.9128 54.4322 85.9473 54.6387C85.846 54.5384 85.7294 54.4532 85.6028 54.3871H85.6017Z" fill="#999A1C"/>
<path d="M81.2546 69.9546C81.9102 69.6328 82.5618 69.285 83.2103 68.9111L83.6987 68.6144L84.0179 68.4139L84.3311 68.1954L84.6959 67.9307C86.7336 66.4515 88.4236 64.5536 89.6499 62.3673C88.2586 62.4556 86.9006 62.8265 85.6605 63.4569C85.3018 63.6374 84.9563 63.8379 84.6107 64.0433L84.4618 64.1336L84.4091 64.1787L83.9267 64.5335C83.3258 65.0017 82.7594 65.5129 82.2325 66.0612C81.7451 66.5604 81.2982 67.0977 80.8949 67.6661C80.4426 68.299 80.008 68.9441 79.5918 69.6007C79.2797 70.116 78.999 70.5992 78.7507 71.0703C79.5918 70.7225 80.4328 70.3606 81.2536 69.9546H81.2546ZM87.7196 64.4754C87.8119 64.4471 87.8967 64.3988 87.9678 64.3341C87.9204 64.471 87.8683 64.6064 87.8118 64.74C87.7948 64.6501 87.764 64.5632 87.7206 64.4824V64.4754H87.7196Z" fill="#999A1C"/>
<path d="M136.431 84.0406L124.222 89.8426C123.762 90.0613 123.372 90.3998 123.092 90.8217C122.811 91.2436 122.653 91.733 122.633 92.2373C122.613 92.7416 122.732 93.2418 122.977 93.6843C123.223 94.1267 123.586 94.4945 124.027 94.7484L152.961 111.445C153.586 111.806 154.329 111.915 155.033 111.748C155.738 111.581 156.35 111.151 156.742 110.549L163.774 99.7314" fill="#A1482D"/>
<path d="M202.832 56.0561L105.483 0.578277C104.815 0.198499 104.058 -0.000924411 103.288 3.22148e-06C102.517 0.000930854 101.761 0.202177 101.094 0.583562C100.427 0.964947 99.8734 1.51307 99.4882 2.17296C99.103 2.83286 98.9 3.58134 98.8994 4.34336V62.0576C98.8994 63.3477 99.5946 64.5396 100.723 65.1851L204.507 124.434C204.865 124.639 205.271 124.747 205.685 124.747C206.098 124.747 206.505 124.639 206.863 124.435C207.221 124.23 207.518 123.936 207.725 123.582C207.931 123.227 208.04 122.825 208.04 122.416V64.9395C208.038 63.1364 207.556 61.3657 206.641 59.806C205.727 58.2463 204.412 56.9528 202.831 56.0561H202.832Z" fill="#F47B56"/>
<path d="M105.489 4.94279L199.899 58.6604C200.907 59.2344 201.744 60.061 202.327 61.0571C202.909 62.0531 203.216 63.1834 203.216 64.334V107.595C203.216 108.009 203.105 108.416 202.896 108.775C202.686 109.133 202.386 109.431 202.023 109.639C201.661 109.846 201.25 109.956 200.832 109.957C200.413 109.958 200.002 109.851 199.638 109.645L103.357 55.0316C102.997 54.8272 102.697 54.5323 102.489 54.1768C102.281 53.8212 102.171 53.4176 102.172 53.0067V6.84438C102.171 6.46013 102.273 6.0826 102.467 5.74964C102.661 5.41668 102.94 5.14001 103.276 4.94737C103.612 4.75474 103.994 4.65291 104.382 4.6521C104.77 4.6513 105.152 4.75155 105.489 4.94279V4.94279Z" fill="white"/>
<path d="M145.213 86.5419C146.326 86.3298 147.03 85.1376 146.785 83.8791C146.54 82.6206 145.439 81.7723 144.326 81.9844C143.212 82.1965 142.508 83.3887 142.753 84.6472C142.998 85.9057 144.099 86.754 145.213 86.5419Z" fill="#AB643C"/>
<path opacity="0.32" d="M130.865 63.6374L174.738 89.7073L196.412 77.2462L157.687 54.9544" fill="url(#paint3_linear)"/>
<path d="M185.083 58.4479L137.65 29.8449C137.396 29.6997 137.107 29.6245 136.814 29.627C136.521 29.6294 136.234 29.7095 135.982 29.8588C135.731 30.0082 135.524 30.2214 135.384 30.4763C135.245 30.7312 135.176 31.0185 135.186 31.3084V47.6047C135.184 47.8997 135.259 48.1902 135.404 48.4479C135.55 48.7056 135.76 48.9217 136.014 49.0753L183.44 77.0728C183.69 77.2127 183.972 77.2855 184.259 77.2836C184.545 77.2818 184.826 77.2055 185.074 77.0624C185.321 76.9193 185.527 76.7143 185.669 76.4681C185.811 76.2219 185.885 75.943 185.884 75.6594L186.132 60.4657C186.15 60.0681 186.063 59.6727 185.879 59.3187C185.695 58.9647 185.421 58.6645 185.083 58.4479V58.4479Z" fill="#E2AC00"/>
<path d="M173.735 66.8341C175.436 69.1878 178.427 69.8453 180.41 68.3106C182.391 66.7769 182.619 63.6243 180.917 61.2777C179.216 58.932 176.225 58.2674 174.242 59.8021C172.261 61.3358 172.033 64.4824 173.735 66.8351V66.8341Z" fill="white"/>
<path d="M169.081 55.5409L149.734 44.0211C149.569 43.9459 149.38 43.9343 149.206 43.9884C149.032 44.0426 148.885 44.1587 148.793 44.3143C148.7 44.4699 148.669 44.6538 148.706 44.8306C148.743 45.0073 148.845 45.1643 148.992 45.2711L168.338 56.7909C168.504 56.866 168.692 56.8777 168.866 56.8235C169.04 56.7693 169.187 56.6532 169.28 56.4976C169.372 56.3421 169.403 56.1581 169.366 55.9813C169.33 55.8046 169.228 55.6476 169.081 55.5409V55.5409ZM168.285 60.2211L141.62 44.3428C141.456 44.2861 141.278 44.2881 141.116 44.3485C140.954 44.4089 140.819 44.5238 140.734 44.6731C140.649 44.8225 140.62 44.9966 140.652 45.165C140.684 45.3334 140.775 45.4852 140.909 45.5939L167.542 61.4782C167.709 61.5546 167.898 61.567 168.072 61.5131C168.247 61.4592 168.396 61.3427 168.488 61.1865C168.581 61.0302 168.612 60.8454 168.574 60.668C168.537 60.4906 168.434 60.3335 168.285 60.2272V60.2211Z" fill="#F2F2F2"/>
<path d="M175.619 61.6065L128.212 33.0105C127.958 32.8651 127.669 32.7897 127.376 32.792C127.082 32.7943 126.795 32.8743 126.543 33.0237C126.292 33.1731 126.085 33.3864 125.945 33.6414C125.805 33.8965 125.737 34.184 125.747 34.474V50.7633C125.74 51.3648 126.051 51.9251 126.568 52.2399L173.995 80.2374C174.247 80.3805 174.533 80.4548 174.823 80.4525C175.113 80.4503 175.398 80.3717 175.648 80.2247C175.897 80.0778 176.103 79.8679 176.243 79.6164C176.383 79.365 176.454 79.0811 176.446 78.7939L176.694 63.5983C176.705 63.2025 176.611 62.8108 176.423 62.4616C176.234 62.1124 175.957 61.8177 175.619 61.6065Z" fill="#F47B56"/>
<path d="M164.27 69.9937C165.972 72.3464 168.963 73.004 170.945 71.4703C172.926 69.9366 173.154 66.783 171.453 64.4363C169.751 62.0907 166.76 61.4261 164.778 62.9608C162.797 64.4945 162.569 67.6411 164.27 69.9937Z" fill="white"/>
<path d="M159.616 58.6995L140.256 47.1797C140.09 47.1033 139.901 47.0908 139.726 47.1448C139.551 47.1987 139.403 47.3151 139.31 47.4714C139.217 47.6277 139.187 47.8125 139.224 47.9899C139.262 48.1672 139.365 48.3244 139.513 48.4307L158.859 59.9505C159.026 60.0269 159.214 60.0394 159.389 59.9854C159.564 59.9315 159.713 59.815 159.805 59.6588C159.898 59.5025 159.929 59.3177 159.891 59.1403C159.854 58.9629 159.751 58.8058 159.602 58.6995H159.615H159.616ZM158.815 63.4118L132.155 47.5085C131.988 47.4321 131.799 47.4196 131.625 47.4735C131.45 47.5275 131.301 47.6439 131.209 47.8002C131.116 47.9565 131.085 48.1413 131.123 48.3187C131.16 48.496 131.263 48.6532 131.412 48.7595L158.078 64.6368C158.244 64.7132 158.433 64.7257 158.608 64.6717C158.783 64.6178 158.931 64.5013 159.024 64.3451C159.117 64.1888 159.147 64.004 159.11 63.8266C159.072 63.6492 158.969 63.4921 158.821 63.3858L158.815 63.4118Z" fill="#F2F2F2"/>
<path d="M163.722 63.5281L116.303 34.9311C116.049 34.7857 115.761 34.7103 115.467 34.7126C115.174 34.7149 114.886 34.7949 114.635 34.9443C114.383 35.0937 114.177 35.307 114.037 35.5621C113.897 35.8171 113.828 36.1046 113.839 36.3947V52.6849C113.837 52.9797 113.912 53.27 114.057 53.5275C114.202 53.7851 114.412 54.001 114.667 54.1545L162.093 82.152C162.345 82.2951 162.63 82.3694 162.921 82.3671C163.211 82.3649 163.496 82.2863 163.745 82.1394C163.995 81.9924 164.2 81.7825 164.341 81.531C164.481 81.2796 164.551 80.9957 164.544 80.7085L164.791 65.5129C164.813 64.711 164.406 63.9581 163.722 63.5281V63.5281Z" fill="#68E1FD"/>
<path d="M163.722 63.5281L116.303 34.9311C116.049 34.7857 115.761 34.7103 115.467 34.7126C115.174 34.7149 114.886 34.7949 114.635 34.9443C114.383 35.0937 114.177 35.307 114.037 35.5621C113.897 35.8171 113.828 36.1046 113.839 36.3947V52.6849C113.837 52.9797 113.912 53.27 114.057 53.5275C114.202 53.7851 114.412 54.001 114.667 54.1545L162.093 82.152C162.345 82.2951 162.63 82.3694 162.921 82.3671C163.211 82.3649 163.496 82.2863 163.745 82.1394C163.995 81.9924 164.2 81.7825 164.341 81.531C164.481 81.2796 164.551 80.9957 164.544 80.7085L164.791 65.5129C164.813 64.711 164.406 63.9581 163.722 63.5281V63.5281Z" fill="#68E1FD"/>
<path d="M152.368 71.9143C154.069 74.268 157.061 74.9256 159.043 73.3909C161.024 71.8572 161.252 68.7046 159.55 66.3579C157.85 64.0123 154.858 63.3477 152.877 64.8814C150.895 66.4151 150.686 69.5627 152.368 71.9143V71.9143Z" fill="white"/>
<path d="M147.714 60.6201L128.362 49.1013C128.195 49.024 128.006 49.0109 127.831 49.0645C127.655 49.1182 127.506 49.2347 127.413 49.3913C127.32 49.5479 127.289 49.7333 127.327 49.9111C127.365 50.0888 127.469 50.2462 127.618 50.3523L146.964 61.8721C147.13 61.9494 147.32 61.9626 147.495 61.9089C147.671 61.8553 147.819 61.7387 147.913 61.5821C148.006 61.4255 148.036 61.2401 147.998 61.0624C147.961 60.8846 147.857 60.7272 147.708 60.6211H147.714V60.6201ZM146.912 65.3074L120.246 49.4291C120.08 49.3527 119.891 49.3402 119.716 49.3942C119.541 49.4481 119.393 49.5646 119.3 49.7208C119.207 49.8771 119.177 50.0619 119.214 50.2393C119.252 50.4167 119.355 50.5738 119.503 50.6801L146.169 66.5584C146.335 66.6357 146.524 66.6489 146.7 66.5952C146.875 66.5416 147.024 66.425 147.117 66.2684C147.21 66.1118 147.241 65.9264 147.203 65.7487C147.165 65.5709 147.061 65.4135 146.912 65.3074Z" fill="#F2F2F2"/>
<path d="M101.486 61.9293C98.4223 64.5375 96.1048 67.8965 94.7661 71.6698C92.4071 78.1153 98.3057 88.6497 98.3057 88.6497L107.483 81.4624" fill="#FF8F6F"/>
<path d="M100.496 147.158L98.0057 145.798L98.6583 142.278C98.6583 142.278 102.367 142.626 102.692 143.928" fill="#003B94"/>
<path d="M101.408 147.106C101.969 146.765 102.555 146.461 103.136 146.158C104.576 145.379 106.655 144.573 107.542 143.109C107.724 142.813 107.81 142.47 107.789 142.124C107.768 141.779 107.641 141.448 107.424 141.175C106.121 139.616 103.266 142.181 101.807 140.454C101.52 140.112 101.382 134.69 101.382 134.69L95.8291 136.173C95.8291 136.173 94.8908 147.068 94.9952 147.738C95.0985 148.408 97.0086 149.027 97.0086 149.027C97.5776 148.908 98.1207 148.69 98.6127 148.383C99.1923 147.964 98.6644 142.851 99.4071 143.567C100.151 144.283 100.476 147.081 100.476 147.081C100.785 147.127 101.098 147.135 101.408 147.106V147.106Z" fill="#F47B56"/>
<path d="M111.101 152.425L108.611 151.083L109.263 147.564C109.263 147.564 112.971 147.912 113.298 149.214" fill="#003B94"/>
<path d="M112.04 152.372C112.6 152.032 113.187 151.728 113.767 151.425C115.208 150.645 117.287 149.839 118.174 148.376C118.355 148.08 118.441 147.736 118.42 147.391C118.399 147.045 118.272 146.714 118.056 146.442C116.752 144.882 113.898 147.448 112.437 145.72C112.151 145.379 112.014 139.956 112.014 139.956L106.461 141.44C106.461 141.44 105.515 152.372 105.62 153.018C105.723 153.663 107.633 154.307 107.633 154.307C108.202 154.188 108.745 153.969 109.237 153.663C109.817 153.244 109.289 148.131 110.032 148.847C110.775 149.563 111.101 152.36 111.101 152.36C111.412 152.402 111.728 152.407 112.04 152.372Z" fill="#F47B56"/>
<path d="M93.0071 117.008L91.3706 138.648C91.3706 138.648 93.9779 142.207 102.72 140.228L102.804 125.64L93.0071 117.008ZM103.104 121.295C102.914 123.158 103.104 143.71 103.104 143.71C103.104 143.71 105.522 148.182 116.049 143.71L115.899 126.245" fill="#3E2928"/>
<path d="M92.1924 124.156C92.9088 124.648 93.1571 122.126 93.9059 122.558C96.6332 124.125 99.5277 125.387 102.536 126.323H102.601C102.673 126.288 102.751 126.268 102.831 126.264C102.91 126.26 102.99 126.272 103.065 126.299C103.14 126.326 103.208 126.368 103.267 126.422C103.325 126.476 103.371 126.541 103.404 126.613C105.262 127.162 107.153 127.592 109.068 127.902C111.524 128.289 113.558 126.49 116.08 126.369C116.08 116.815 116.127 89.6231 112.014 83.8211L99.8439 79.7733C99.7851 80.7657 93.9383 87.4699 94.0822 95.6446C94.2443 104.857 93.0324 113.546 92.8237 116.428C92.7912 116.918 92.2177 123.635 92.1924 124.156V124.156Z" fill="#3E2928"/>
<path d="M113.134 72.8366L112.014 83.796C112.014 83.796 102.934 84.1569 99.0231 81.4874V72.192" fill="#FF8F6F"/>
<path d="M124.678 65.6232L123.753 66.8732C124.246 65.856 124.681 64.8122 125.056 63.7466C125.318 63.0189 124.137 62.7282 123.877 63.4569L123.74 63.8309C123.853 63.4439 123.96 63.055 124.059 62.664C124.081 62.5866 124.087 62.5057 124.076 62.4261C124.066 62.3464 124.039 62.2696 123.998 62.2002C123.958 62.1309 123.903 62.0703 123.838 62.0221C123.773 61.9739 123.699 61.9391 123.62 61.9197C123.541 61.9002 123.46 61.8966 123.379 61.909C123.299 61.9215 123.222 61.9496 123.153 61.9919C123.084 62.0342 123.024 62.0897 122.977 62.1553C122.93 62.2208 122.897 62.2949 122.88 62.3733C122.624 63.3853 122.317 64.3839 121.961 65.3656C122.16 64.4942 122.304 63.6113 122.391 62.7222C122.469 61.9553 121.25 61.9874 121.178 62.7222C121.077 63.7346 120.895 64.737 120.631 65.7194C120.631 65.3733 120.598 65.028 120.533 64.6879C120.524 64.6024 120.497 64.5197 120.453 64.4454C120.409 64.3711 120.35 64.3068 120.279 64.2569C120.246 64.1216 120.207 63.9878 120.162 63.8559C120.116 63.7208 120.023 63.6061 119.9 63.532C119.777 63.4579 119.631 63.429 119.489 63.4506C119.346 63.4721 119.216 63.5426 119.121 63.6498C119.025 63.7569 118.971 63.8938 118.968 64.0363L118.89 68.5492C118.669 69.0174 118.383 69.4514 118.037 69.8393C118.623 70.2403 119.189 70.6713 119.731 71.1285C120.216 71.5324 120.677 71.9635 121.113 72.4176C121.505 71.9364 121.88 71.4462 122.241 70.948C122.286 70.9103 122.325 70.8668 122.358 70.8187C123.444 69.2296 124.565 67.6648 125.722 66.1254C126.204 65.5971 125.141 65.0107 124.678 65.6232V65.6232Z" fill="#FFB5A9"/>
<path d="M107.373 62.8445C107.373 62.8445 111.662 63.9852 113.402 66.7128C114.492 68.5999 115.452 70.5574 116.277 72.5719L119.444 67.7052C119.444 67.7052 123.29 68.872 124.815 70.7415C124.815 70.7415 120.253 80.6053 116.277 81.4494C112.301 82.2934 108.077 75.6604 108.077 75.6604C108.077 75.6604 107.204 78.4321 107.373 75.4729" fill="#FF8F6F"/>
<path d="M110.098 73.3849C108.851 72.3819 107.91 71.0563 107.379 69.5557C106.864 67.8215 107.51 66.2998 108.108 64.6879C108.758 63.0905 109.137 61.3981 109.23 59.6788C109.283 57.9908 109.087 56.3007 108.97 54.6186C108.953 54.5467 108.953 54.472 108.97 54.4001C108.396 52.4975 107.223 50.8866 104.908 50.6932C98.9187 50.19 98.5793 56.7528 98.6259 59.4212C98.6705 62.0907 98.9583 63.895 96.9701 65.0107C94.982 66.1254 93.5472 69.0524 95.4441 71.4182C97.341 73.7839 95.6397 72.9208 94.375 75.0218C93.1114 77.1239 93.4367 79.7472 96.0308 80.6955C98.6249 81.6428 110.683 79.8635 111.792 78.7609C112.185 78.3168 112.389 77.7388 112.359 77.149C112.089 75.6656 111.285 74.3289 110.098 73.3849Z" fill="#007F68"/>
<path d="M115.99 19.2593C117.005 20.7045 117.592 22.4016 117.684 24.1591C117.798 24.9638 117.6 25.7812 117.13 26.4477C116.93 26.665 116.663 26.8104 116.37 26.8606C116.077 26.9109 115.776 26.8633 115.514 26.7253C115.184 26.5952 114.886 26.3969 114.64 26.1439C114.419 25.9389 114.23 25.7024 114.08 25.4422L113.924 25.1395C113.881 25.2187 113.829 25.2919 113.767 25.358C113.612 25.4783 113.427 25.5555 113.233 25.5836C112.907 25.6437 112.57 25.6036 112.268 25.4683C111.547 25.1599 110.948 24.6279 110.56 23.9526C110.092 23.2195 109.831 22.3761 109.804 21.5098C109.708 20.8081 109.929 20.1004 110.41 19.5751C110.616 19.378 110.879 19.2488 111.163 19.205C111.447 19.1612 111.737 19.2051 111.995 19.3305C112.256 19.4337 112.496 19.5821 112.704 19.7696C112.882 19.9189 113.04 20.0903 113.174 20.2788L113.292 20.4853V19.9109L114.595 20.4141L114.725 24.0369C114.735 24.2965 114.816 24.5481 114.96 24.7656C115.082 24.9751 115.27 25.1395 115.495 25.2367C116.125 25.4813 116.416 24.944 116.368 23.6239C116.302 22.3172 115.866 21.0552 115.109 19.9821C114.429 18.8902 113.419 18.038 112.222 17.5462C111.787 17.3279 111.297 17.2436 110.813 17.3044C110.33 17.3652 109.876 17.5682 109.511 17.887C109.121 18.2738 108.825 18.7423 108.643 19.2578C108.461 19.7734 108.399 20.3227 108.461 20.8652C108.536 22.2473 108.986 23.5838 109.765 24.7335C110.385 25.8689 111.362 26.7739 112.548 27.3117C112.961 27.4822 113.404 27.5674 113.852 27.5624C114.143 27.5824 114.435 27.5293 114.699 27.408L114.96 27.2666L115.749 28.7171L115.618 28.8074C115.495 28.8755 115.366 28.9367 115.233 28.9878C115.025 29.077 114.807 29.1382 114.582 29.1682C114.294 29.2064 114.003 29.2064 113.715 29.1682C113.337 29.1235 112.967 29.0302 112.614 28.8906C111.61 28.4638 110.718 27.8157 110.006 26.996C109.163 26.0736 108.48 25.0191 107.986 23.8755C107.491 22.7836 107.208 21.6094 107.151 20.4141C107.081 19.4092 107.288 18.4044 107.751 17.5071C108.135 16.754 108.798 16.1766 109.602 15.8952C110.444 15.6207 111.36 15.6665 112.17 16.0235C113.752 16.6847 115.087 17.8158 115.99 19.2603V19.2593ZM113.115 23.8434C113.329 23.5727 113.425 23.2299 113.383 22.8891C113.372 22.4688 113.254 22.0581 113.037 21.6962C112.86 21.3803 112.583 21.1312 112.248 20.9875C112.12 20.9223 111.974 20.8972 111.831 20.9157C111.688 20.9341 111.554 20.9952 111.447 21.0907C111.335 21.2172 111.251 21.3662 111.201 21.5275C111.151 21.6888 111.137 21.8588 111.16 22.026C111.175 22.451 111.302 22.864 111.531 23.2249C111.719 23.5517 112.01 23.8103 112.359 23.9597C112.61 24.087 112.915 24.0399 113.115 23.8434V23.8434ZM192.95 89.0627C193.967 90.5068 194.554 92.204 194.645 93.9615C194.758 94.7661 194.561 95.5834 194.091 96.25C193.891 96.4668 193.623 96.6116 193.331 96.6618C193.038 96.7121 192.737 96.6649 192.474 96.5277C192.145 96.3957 191.848 96.1977 191.601 95.9463C191.381 95.7402 191.192 95.5039 191.04 95.2446L190.884 94.9419C190.84 95.0201 190.787 95.0933 190.727 95.1604C190.573 95.2807 190.389 95.3599 190.193 95.386C189.87 95.4501 189.534 95.412 189.235 95.2767C188.513 94.9665 187.914 94.4323 187.527 93.755C187.055 93.0212 186.792 92.1753 186.764 91.3061C186.664 90.6044 186.886 89.8947 187.371 89.3714C187.576 89.1752 187.838 89.0464 188.12 89.0026C188.402 88.9588 188.691 89.0022 188.948 89.1269C189.209 89.2291 189.45 89.3775 189.658 89.5649C189.836 89.7173 189.993 89.8907 190.128 90.0812L190.252 90.2866V89.7133L191.555 90.2095L191.686 93.8322C191.697 94.0918 191.778 94.3434 191.92 94.561C192.042 94.7715 192.23 94.9359 192.455 95.0321C193.106 95.2767 193.374 94.7414 193.334 93.4202C193.268 92.1115 192.833 90.8474 192.077 89.7714C191.397 88.6835 190.389 87.8337 189.196 87.3415C188.762 87.123 188.272 87.0381 187.788 87.0978C187.305 87.1575 186.851 87.359 186.484 87.6764C186.097 88.0676 185.804 88.5404 185.626 89.0593C185.449 89.5782 185.393 90.13 185.461 90.6736C185.534 92.0558 185.984 93.3927 186.764 94.5419C187.409 95.6506 188.396 96.5252 189.581 97.0369C189.993 97.2073 190.436 97.2946 190.884 97.2946C191.175 97.3116 191.466 97.2585 191.731 97.1392L191.992 96.9978L192.781 98.4483L192.649 98.5386C192.527 98.6077 192.398 98.6679 192.265 98.719C192.056 98.8044 191.837 98.8649 191.614 98.8994C191.324 98.9374 191.03 98.9374 190.74 98.8994C190.365 98.8523 189.997 98.757 189.646 98.6157C188.643 98.1907 187.751 97.5448 187.039 96.7272C186.195 95.8025 185.511 94.7456 185.017 93.5996C184.522 92.5082 184.239 91.3343 184.183 90.1393C184.112 89.1363 184.32 88.1333 184.783 87.2383C185.168 86.4842 185.831 85.9048 186.634 85.6194C187.479 85.3482 188.396 85.3946 189.208 85.7497C190.772 86.4451 192.079 87.6025 192.95 89.0627V89.0627ZM190.076 93.6458C190.291 93.3761 190.39 93.0333 190.349 92.6914C190.338 92.2705 190.217 91.8596 189.998 91.4986C189.824 91.1826 189.549 90.9332 189.215 90.7899C189.087 90.7236 188.942 90.6975 188.799 90.7148C188.656 90.7322 188.522 90.7923 188.414 90.8871C188.299 91.0125 188.214 91.161 188.163 91.3223C188.112 91.4836 188.098 91.6539 188.12 91.8214C188.135 92.2444 188.264 92.6564 188.492 93.0142C188.679 93.343 188.97 93.6036 189.32 93.756C189.441 93.8187 189.58 93.8418 189.716 93.822C189.851 93.8022 189.977 93.7405 190.076 93.6458" fill="#F47B56"/>
<path style="mix-blend-mode:multiply" opacity="0.25" d="M63.0555 116.55L40.9916 104.134L18.9337 116.576C18.9337 116.576 31.208 124.156 42.1903 130.526C49.165 125.652 55.3634 120.077 63.0555 116.55V116.55Z" fill="url(#paint4_linear)"/>
<g filter="url(#filter0_d)">
<path d="M23.2079 81.6679V108.668L44.4713 120.714L68.4808 106.667V79.668" fill="black"/>
</g>
<path d="M23.2079 81.6679V108.668L44.4713 120.714L68.4808 106.667V79.668" fill="#FF9271"/>
<path d="M44.4713 93.7149V120.715L68.4808 106.668V79.668L44.4713 93.7149Z" fill="#DF5C34"/>
<path d="M23.2079 81.6679L47.8791 67.7563L68.4798 79.6681L44.4713 93.7149L23.2079 81.6679Z" fill="#F47B56"/>
<path d="M45.0357 73.9533C47.5373 73.7862 50.0351 74.3306 52.2343 75.522C53.4938 76.2548 54.1819 77.0196 54.2791 77.8176C54.3764 78.6145 53.961 79.3082 52.9811 79.8926C52.5161 80.1767 52.0039 80.377 51.4682 80.484C51.0284 80.5873 50.5765 80.6334 50.1245 80.6193L49.631 80.5812C49.6777 80.6905 49.7081 80.8048 49.7223 80.9221C49.7069 81.1995 49.6174 81.4679 49.4628 81.6999C49.2055 82.131 48.8386 82.4878 48.3989 82.7344C47.3731 83.3374 46.1973 83.6447 45.0043 83.6216C43.7697 83.6547 42.5498 83.3501 41.4789 82.7414C40.4666 82.15 39.9478 81.4553 39.9083 80.6584C39.9122 80.2364 40.036 79.824 40.2655 79.4682C40.495 79.1125 40.8211 78.8278 41.2064 78.6466C41.5762 78.4182 41.9791 78.2469 42.4011 78.1383C42.7372 78.0423 43.0833 77.9841 43.4326 77.9649H43.7903L43.1408 77.579L44.9647 76.4543L49.1903 78.9162C49.5134 79.0884 49.8746 79.1785 50.2416 79.1785C50.6085 79.1785 50.9698 79.0884 51.2929 78.9162C52.1887 78.3639 51.8684 77.6371 50.3323 76.737C48.6997 75.8475 46.8438 75.4391 44.984 75.5601C43.0129 75.5841 41.0846 76.1325 39.4016 77.148C37.8705 78.0952 37.1115 79.225 37.1237 80.5361C37.1237 81.8222 37.9344 82.966 39.5121 83.8852C41.2347 84.8375 43.1894 85.2986 45.1593 85.2164C47.1213 85.2484 49.0538 84.741 50.7416 83.7509C51.3255 83.4082 51.8492 82.9738 52.292 82.4648C52.5889 82.154 52.8108 81.7801 52.9416 81.3721L53.0327 80.9672L55.4404 81.1015C55.4444 81.1747 55.4444 81.2478 55.4404 81.321C55.3968 81.5175 55.338 81.711 55.2651 81.8994C55.1607 82.2001 55.0219 82.4908 54.8496 82.7605C54.6024 83.1254 54.3156 83.4622 53.9934 83.7629C53.5678 84.1689 53.1017 84.5268 52.598 84.8305C51.149 85.691 49.5438 86.2631 47.873 86.5145C46.052 86.8292 44.1926 86.8617 42.3615 86.6108C40.6971 86.4169 39.0884 85.8969 37.6294 85.0811C36.4518 84.4639 35.509 83.4848 34.9431 82.2914C34.7117 81.7707 34.5923 81.2081 34.5923 80.6394C34.5923 80.0706 34.7117 79.5081 34.9431 78.9874C35.5038 77.7718 36.4373 76.7617 37.6111 76.1004C39.8473 74.7408 42.4112 73.9993 45.0357 73.9533V73.9533ZM47.3987 80.6003C47.3562 80.3806 47.2601 80.1744 47.1189 79.9998C46.9776 79.8251 46.7954 79.6871 46.5881 79.5979C46.0764 79.2998 45.4936 79.1424 44.8999 79.1418C44.3484 79.1211 43.8027 79.2593 43.3292 79.5397C42.9401 79.7272 42.6898 80.1141 42.6807 80.5421C42.7395 80.9882 43.0303 81.3711 43.4458 81.5516C43.9687 81.8472 44.5632 81.9962 45.1654 81.9826C45.7443 81.9971 46.3156 81.8501 46.814 81.5586C47.192 81.3882 47.4322 81.0113 47.4251 80.6003" fill="#3E2928"/>
<defs>
<filter id="filter0_d" x="-26.7921" y="54.668" width="145.273" height="141.046" filterUnits="userSpaceOnUse" color-interpolation-filters="sRGB">
<feFlood flood-opacity="0" result="BackgroundImageFix"/>
<feColorMatrix in="SourceAlpha" type="matrix" values="0 0 0 0 0 0 0 0 0 0 0 0 0 0 0 0 0 0 127 0"/>
<feOffset dy="25"/>
<feGaussianBlur stdDeviation="25"/>
<feColorMatrix type="matrix" values="0 0 0 0 0.209139 0 0 0 0 0.0691446 0 0 0 0 0.478091 0 0 0 0.497159 0"/>
<feBlend mode="normal" in2="BackgroundImageFix" result="effect1_dropShadow"/>
<feBlend mode="normal" in="SourceGraphic" in2="effect1_dropShadow" result="shape"/>
</filter>
<linearGradient id="paint0_linear" x1="138.425" y1="102.112" x2="131.436" y2="111.685" gradientUnits="userSpaceOnUse">
<stop stop-color="#78B46A"/>
<stop offset="0.03" stop-color="#7F3500"/>
<stop offset="1" stop-color="white"/>
</linearGradient>
<linearGradient id="paint1_linear" x1="112.19" y1="143.559" x2="97.4885" y2="159.85" gradientUnits="userSpaceOnUse">
<stop stop-color="#78B46A"/>
<stop offset="0.03" stop-color="#7F3500"/>
<stop offset="1" stop-color="white"/>
</linearGradient>
<linearGradient id="paint2_linear" x1="79.8597" y1="75.8638" x2="68.8418" y2="88.0754" gradientUnits="userSpaceOnUse">
<stop stop-color="#78B46A"/>
<stop offset="0.03" stop-color="#7F3500"/>
<stop offset="1" stop-color="white"/>
</linearGradient>
<linearGradient id="paint3_linear" x1="183.968" y1="76.0001" x2="177.332" y2="71.1093" gradientUnits="userSpaceOnUse">
<stop stop-color="white" stop-opacity="0"/>
<stop offset="0.99" stop-color="#DC841E"/>
</linearGradient>
<linearGradient id="paint4_linear" x1="55.1943" y1="111.419" x2="40.2796" y2="127.947" gradientUnits="userSpaceOnUse">
<stop stop-color="#78B46A"/>
<stop offset="0.03" stop-color="#7F3500"/>
<stop offset="1" stop-color="white"/>
</linearGradient>
</defs>
</svg>
